# Blender v2.92.0 OBJ File: ''
# www.blender.org
mtllib DoorBase.mtl
o Cube
v 1.000000 1.437344 -0.387335
v 1.000000 -0.837498 -0.387335
v 1.000000 1.437344 0.387335
v 1.000000 -0.837498 0.387335
v -1.000000 1.437344 -0.387335
v -1.000000 -0.837498 -0.387335
v -1.000000 1.437344 0.387335
v -1.000000 -0.837498 0.387335
v 0.000000 -0.837498 -0.387335
v 0.000000 2.049767 0.387335
v 0.000000 -0.837498 0.387335
v 0.000000 2.049767 -0.387335
v -0.500000 -0.837498 -0.387335
v -0.500000 1.950450 0.387335
v -0.500000 -0.837498 0.387335
v -0.500000 1.950450 -0.387335
v 0.500000 -0.837498 0.387335
v 0.500000 1.950450 -0.387335
v 0.500000 -0.837498 -0.387335
v 0.500000 1.950450 0.387335
v -0.250000 -0.837498 0.387335
v -0.250000 2.033877 -0.387335
v -0.250000 -0.837498 -0.387335
v -0.250000 2.033877 0.387335
v 0.250000 -0.837498 -0.387335
v 0.250000 2.033877 0.387335
v 0.250000 -0.837498 0.387335
v 0.250000 2.033877 -0.387335
v -0.750000 -0.837498 -0.387335
v -0.750000 1.821401 0.387335
v -0.750000 -0.837498 0.387335
v -0.750000 1.821401 -0.387335
v 0.750000 -0.837498 0.387335
v 0.750000 1.821401 -0.387335
v 0.750000 -0.837498 -0.387335
v 0.750000 1.821401 0.387335
v -0.875000 1.703736 0.387335
v -0.875000 1.703736 -0.387335
v 0.875000 1.703736 -0.387335
v 0.875000 1.703736 0.387335
v 0.937500 1.614607 -0.387335
v 0.937500 1.614607 0.387335
v -0.937500 1.614607 0.387335
v -0.937500 1.614607 -0.387335
v 0.968750 1.553308 -0.387335
v 0.968750 1.553308 0.387335
v -0.968750 1.553308 0.387335
v -0.968750 1.553308 -0.387335
vt 0.333333 0.324823
vt 0.333333 0.306840
vt 0.666667 0.306840
vt 0.666667 0.324823
vt 0.666667 0.000000
vt 0.333333 0.000000
vt 0.333333 0.000000
vt 0.333333 0.306840
vt 0.000000 0.306840
vt 0.000000 0.000000
vt 0.333333 0.443489
vt 0.333333 0.464361
vt 0.000000 0.464361
vt 0.000000 0.443489
vt 0.333333 0.443489
vt 0.333333 0.413507
vt 0.666667 0.413507
vt 0.666667 0.443489
vt 0.333333 0.377372
vt 0.333333 0.413507
vt 0.000000 0.413507
vt 0.000000 0.377372
vt 0.666667 0.464361
vt 0.625000 0.498843
vt 0.645833 0.516610
vt 0.656250 0.530069
vt 0.661458 0.539325
vt 0.666667 0.556835
vt 0.666667 0.900330
vt 0.625000 0.900330
vt 0.583333 0.900330
vt 0.541667 0.900330
vt 0.500000 0.900330
vt 0.458333 0.900330
vt 0.416667 0.900330
vt 0.375000 0.900330
vt 0.333333 0.900330
vt 0.333333 0.556835
vt 0.338542 0.539325
vt 0.343750 0.530069
vt 0.354167 0.516610
vt 0.375000 0.498843
vt 0.416667 0.479357
vt 0.458333 0.466760
vt 0.500000 0.464361
vt 0.541667 0.466760
vt 0.583333 0.479357
vt 0.333333 0.377372
vt 0.666667 0.377372
vt 0.333333 0.352136
vt 0.000000 0.352136
vt 0.291667 0.498843
vt 0.312500 0.516610
vt 0.322917 0.530069
vt 0.328125 0.539325
vt 0.333333 0.556835
vt 0.333333 0.900330
vt 0.291667 0.900330
vt 0.250000 0.900330
vt 0.208333 0.900330
vt 0.166667 0.900330
vt 0.125000 0.900330
vt 0.083333 0.900330
vt 0.041667 0.900330
vt 0.000000 0.900330
vt 0.000000 0.556835
vt 0.005208 0.539325
vt 0.010417 0.530069
vt 0.020833 0.516610
vt 0.041667 0.498843
vt 0.083333 0.479357
vt 0.125000 0.466760
vt 0.166667 0.464361
vt 0.208333 0.466760
vt 0.250000 0.479357
vt 0.333333 0.352136
vt 0.666667 0.352136
vt 0.333333 0.335432
vt 0.000000 0.335432
vt 0.333333 0.324823
vt 0.000000 0.324823
vt 0.333333 0.335432
vt 0.666667 0.335432
vt 0.958333 0.000000
vt 1.000000 0.000000
vt 1.000000 0.333333
vt 0.958333 0.333333
vt 0.916667 0.333333
vt 0.875000 0.333333
vt 0.833333 0.333333
vt 0.791667 0.333333
vt 0.750000 0.333333
vt 0.708333 0.333333
vt 0.666667 0.333333
vt 0.666667 0.000000
vt 0.708333 0.000000
vt 0.750000 0.000000
vt 0.791667 0.000000
vt 0.833333 0.000000
vt 0.875000 0.000000
vt 0.916667 0.000000
vn -0.9656 0.2602 0.0000
vn -1.0000 0.0000 0.0000
vn 1.0000 0.0000 0.0000
vn 0.0634 0.9980 0.0000
vn -0.3165 0.9486 0.0000
vn 0.4587 0.8886 0.0000
vn -0.0634 0.9980 0.0000
vn 0.3165 0.9486 0.0000
vn 0.0000 0.0000 1.0000
vn -0.4587 0.8886 0.0000
vn 0.6854 0.7281 0.0000
vn -0.0000 0.0000 -1.0000
vn -0.6854 0.7281 0.0000
vn 0.8188 0.5741 0.0000
vn 0.8909 0.4542 0.0000
vn -0.8188 0.5741 0.0000
vn 0.9656 0.2602 0.0000
vn -0.8909 0.4542 0.0000
vn 0.0000 -1.0000 0.0000
usemtl Material
s off
f 48/1/1 5/2/1 7/3/1 47/4/1
f 8/5/2 7/3/2 5/2/2 6/6/2
f 2/7/3 1/8/3 3/9/3 4/10/3
f 28/11/4 12/12/4 10/13/4 26/14/4
f 22/15/5 16/16/5 14/17/5 24/18/5
f 34/19/6 18/20/6 20/21/6 36/22/6
f 12/12/7 22/15/7 24/18/7 10/23/7
f 18/20/8 28/11/8 26/14/8 20/21/8
f 30/24/9 37/25/9 43/26/9 47/27/9 7/28/9 8/29/9 31/30/9 15/31/9 21/32/9 11/33/9 27/34/9 17/35/9 33/36/9 4/37/9 3/38/9 46/39/9 42/40/9 40/41/9 36/42/9 20/43/9 26/44/9 10/45/9 24/46/9 14/47/9
f 16/16/10 32/48/10 30/49/10 14/17/10
f 39/50/11 34/19/11 36/22/11 40/51/11
f 34/52/12 39/53/12 41/54/12 45/55/12 1/56/12 2/57/12 35/58/12 19/59/12 25/60/12 9/61/12 23/62/12 13/63/12 29/64/12 6/65/12 5/66/12 48/67/12 44/68/12 38/69/12 32/70/12 16/71/12 22/72/12 12/73/12 28/74/12 18/75/12
f 32/48/13 38/76/13 37/77/13 30/49/13
f 41/78/14 39/50/14 40/51/14 42/79/14
f 45/80/15 41/78/15 42/79/15 46/81/15
f 38/76/16 44/82/16 43/83/16 37/77/16
f 1/8/17 45/80/17 46/81/17 3/9/17
f 44/82/18 48/1/18 47/4/18 43/83/18
f 35/84/19 2/85/19 4/86/19 33/87/19 17/88/19 27/89/19 11/90/19 21/91/19 15/92/19 31/93/19 8/94/19 6/95/19 29/96/19 13/97/19 23/98/19 9/99/19 25/100/19 19/101/19
